<?xml version="1.0" encoding="utf-8"?>
<!-- Generator: Adobe Illustrator 16.0.0, SVG Export Plug-In . SVG Version: 6.00 Build 0)  -->
<!DOCTYPE svg PUBLIC "-//W3C//DTD SVG 1.1//EN" "http://www.w3.org/Graphics/SVG/1.1/DTD/svg11.dtd">
<svg version="1.1" id="Capa_1" xmlns="http://www.w3.org/2000/svg" xmlns:xlink="http://www.w3.org/1999/xlink" x="0px" y="0px"
	 width="512px" height="512px" viewBox="0 0 512 512" enable-background="new 0 0 512 512" xml:space="preserve">
<g>
	<g>
		<g>
			<path fill="#F6832E" d="M437.02,74.98C388.667,26.629,324.38,0,256,0C187.619,0,123.332,26.629,74.98,74.98
				C26.629,123.332,0,187.62,0,256s26.629,132.667,74.98,181.019C123.332,485.371,187.62,512,256,512s132.667-26.629,181.019-74.98
				C485.371,388.667,512,324.38,512,256S485.371,123.333,437.02,74.98z M154.907,236.593l69.728,69.728 M378.307,173.86"/>
		</g>
	</g>
</g>
<path fill="none" stroke="#FFFFFF" stroke-width="23" stroke-miterlimit="10" d="M156.5,130.239l209,239L156.5,130.239z"/>
<path fill="none" stroke="#FFFFFF" stroke-width="23" stroke-miterlimit="10" d="M365.5,118.562L165.105,364.821L365.5,118.562z"/>
</svg>
